<svg viewBox="0 0 98 25" version="1.1" xmlns="http://www.w3.org/2000/svg" xmlns:xlink="http://www.w3.org/1999/xlink">
    <g id="New---Fall-2017---CW">
        <g id="2016-BVA-Style-Guide-Copy" transform="translate(-183.000000, -1987.000000)">
            <g id="Logo-Color-Black" transform="translate(183.000000, 1987.000000)">
                <path d="M5.42004262,20.4658607 C7.42141148,20.4658607 8.6303459,19.1621721 8.6303459,16.9781557 C8.6303459,14.7945492 7.42141148,13.5261066 5.42004262,13.5261066 L4.48823934,13.5261066 L4.48823934,20.4658607 L5.42004262,20.4658607 Z M5.42004262,10.0039754 C7.14548525,10.0039754 8.35441967,8.80602459 8.35441967,7.04495902 C8.35441967,5.31872951 7.14548525,4.12159836 5.42004262,4.12159836 L4.48823934,4.12159836 L4.48823934,10.0039754 L5.42004262,10.0039754 Z M6.11046066,0.599057377 C10.4594115,0.599057377 12.8415344,2.60643443 12.8415344,6.26995902 C12.8415344,9.12282787 11.4606984,10.8490574 8.76770656,11.4129918 C11.8747885,12.2580738 13.2210836,14.0195492 13.2210836,17.260123 C13.2210836,21.6982377 10.4943541,24.0937295 5.42004262,24.0937295 L-8.03278689e-05,24.0937295 L-8.03278689e-05,0.599057377 L6.11046066,0.599057377 Z" id="Fill-1" fill="#EF512F"></path>
                <polygon id="Fill-4" fill="#0EA6D8" points="19.2573615 0.599016393 21.0526893 16.6965574 23.366132 0.599016393 27.7500254 0.599016393 23.366132 24.0936885 18.7051074 24.0936885 14.4248369 0.599016393"></polygon>
                <path d="M35.1429205,5.98811475 L33.31265,16.6963115 L36.7301992,16.6963115 L35.1429205,5.98811475 Z M32.6913139,20.4659836 L32.0008959,24.0938525 L27.4788385,24.0938525 L32.6913139,0.493032787 L37.6616008,0.493032787 L42.7021746,24.0938525 L37.9728713,24.0938525 L37.3856746,20.4659836 L32.6913139,20.4659836 Z" id="Fill-6" fill="#120f19"></path>
                <path d="M67.982841,7.38434426 C67.9563328,7.38065574 67.8896607,6.34663934 67.8800213,6.27532787 C67.7984885,5.66959016 67.6836197,4.99704918 67.3426279,4.47983607 C66.8578492,3.74377049 65.8919066,3.74254098 65.3452754,4.38434426 C64.7620951,5.06918033 64.5588656,6.02409836 64.4231115,6.89581967 C64.1226852,8.82409836 64.1086279,10.8036066 64.1086279,12.7515574 C64.1086279,18.6343443 64.660882,20.817541 66.1103984,20.817541 C67.2847918,20.817541 68.4712344,19.8220492 68.4712344,16.5441803 L72.3205459,16.5441803 C72.3205459,22.874918 69.1829393,24.692541 65.9039557,24.692541 C63.6595951,24.692541 61.7269066,23.4601639 60.7951033,21.4167213 C59.8633,19.3031967 59.5174885,17.0134426 59.5174885,12.7163115 C59.5174885,8.595 59.7934148,6.16385246 60.5187754,4.15647541 C61.4156361,1.58557377 63.6250541,-8.19672131e-05 66.2485623,-8.19672131e-05 C67.6314066,-8.19672131e-05 68.9098246,0.305655738 69.9573,1.27819672 C71.6469967,2.84704918 71.9727262,5.20196721 71.9727262,7.38434426 L67.982841,7.38434426 Z" id="Fill-8" fill="#120f19"></path>
                <path d="M52.7209074,7.38434426 C52.6943992,7.38065574 52.627727,6.34663934 52.6180877,6.27532787 C52.5365549,5.66959016 52.4212844,4.99704918 52.0806943,4.47983607 C51.5959156,3.74377049 50.6295713,3.74254098 50.0833418,4.38434426 C49.5001615,5.06918033 49.296932,6.02409836 49.1611779,6.89581967 C48.86035,8.82409836 48.8466943,10.8036066 48.8466943,12.7515574 C48.8466943,18.6343443 49.3989484,20.817541 50.8484648,20.817541 C52.0228582,20.817541 53.2088992,19.8220492 53.2088992,16.5441803 L57.0582107,16.5441803 C57.0582107,22.874918 53.9210057,24.692541 50.6416205,24.692541 C48.3976615,24.692541 46.4645713,23.4601639 45.5331697,21.4167213 C44.6009648,19.3031967 44.2555549,17.0134426 44.2555549,12.7163115 C44.2555549,8.595 44.5314811,6.16385246 45.2568418,4.15647541 C46.1533008,1.58557377 48.3627189,-8.19672131e-05 50.9866287,-8.19672131e-05 C52.3690713,-8.19672131e-05 53.6474893,0.305655738 54.6949648,1.27819672 C56.3850631,2.84704918 56.710391,5.20196721 56.710391,7.38434426 L52.7209074,7.38434426 Z" id="Fill-11" fill="#120f19"></path>
                <polygon id="Fill-14" fill="#120f19" points="84.7838164 0.599016393 84.7838164 4.47319672 79.571341 4.47319672 79.571341 10.0744262 84.7838164 10.0744262 84.7838164 13.8785246 79.571341 13.8785246 79.571341 20.2190984 84.7838164 20.2190984 84.7838164 24.0936885 75.083423 24.0936885 75.083423 0.599016393"></polygon>
                <polygon id="Fill-16" fill="#120f19" points="92.7624623 0.599016393 92.7624623 20.2190984 97.9749377 20.2190984 97.9749377 24.0936885 88.2745443 24.0936885 88.2745443 0.599016393"></polygon>
            </g>
        </g>
    </g>
</svg>